<svg width="280" height="280" viewBox="0 0 280 280" fill="none" xmlns="http://www.w3.org/2000/svg">
<path d="M46.3261 209.322C53.7321 227.395 65.8076 231.157 74.2981 227.395C90.7183 220.12 133.372 211.992 177.179 231.099C235.199 256.405 247.544 218.224 229.027 179.604C210.51 140.983 204.233 101.926 225.58 80.4083C246.927 58.8905 218.992 25.2293 169.384 60.2683C137.325 82.9119 113.798 77.8697 101.164 71.4683C89.2566 65.4353 76.0143 59.1282 63.6076 64.0527C48.553 70.0284 42.6216 82.9845 65.5256 111.928C97.9839 152.943 29.7235 168.812 46.3261 209.322Z" fill="#CFF4C8"/>
<path d="M214.055 84.5612C213.858 84.8109 213.637 85.0406 213.395 85.2472L196.089 100.224L183.172 139.456L147.163 165.769C147.163 165.769 141.028 170.909 135.427 171.385C134.174 171.824 130.375 173.302 128.272 175.585C127.593 176.322 122.274 192.031 114.024 214.246C113.611 215.358 112.798 216.275 111.743 216.818C110.689 217.36 109.469 217.489 108.325 217.179C98.0156 214.381 74.9245 208.22 63.9382 204.058C63.2611 203.802 62.6571 203.384 62.1788 202.841C61.7006 202.297 61.3627 201.645 61.1947 200.941C61.0267 200.237 61.0338 199.503 61.2152 198.802C61.3967 198.101 61.747 197.456 62.2356 196.922C74.86 183.123 101.402 151.538 101.402 151.538L103.203 147.798C103.203 147.798 114.541 112.371 118.25 110.068C119.653 108.545 127.72 96.7352 130.894 88.4965C131.616 87.2975 134.962 82.3074 137.765 77.9989C139.751 74.9189 141.475 72.1789 141.769 71.3963C141.832 71.217 141.938 71.0557 142.078 70.9265C142.078 70.9265 142.069 70.924 142.08 70.9175C143.418 69.5205 147.855 69.836 148.071 75.1398C148.311 80.9904 143.05 93.1272 141.991 93.4579C141.455 94.7487 139.933 101.701 136.955 107.587C136.698 108.477 136.315 110.775 138.827 110.217C141.341 109.651 199.497 82.2542 199.497 82.2542L206.709 77.7232C207.771 77.0357 209.035 76.7275 210.295 76.8489C211.787 77.0205 213.154 77.7635 214.11 78.9219C216.168 81.3066 214.824 83.5977 214.055 84.5612Z" fill="#32976C"/>
<path d="M140.705 78.9614C139.666 79.0569 138.605 78.5585 137.765 77.9982C139.751 74.9182 141.475 72.1782 141.769 71.3956C141.833 71.2163 141.939 71.055 142.078 70.9258C144.472 73.7839 140.992 78.6682 140.705 78.9614Z" fill="#CFF4C8"/>
<path d="M200.134 72.6463L157.518 60.3628C154.546 59.5062 151.442 61.2209 150.586 64.1927L124.798 153.659C123.942 156.63 125.656 159.734 128.628 160.591L171.244 172.874C174.216 173.731 177.32 172.016 178.176 169.044L203.964 79.5782C204.82 76.6064 203.106 73.5029 200.134 72.6463Z" fill="#004226"/>
<path d="M197.894 74.8868L158.221 63.4518C155.993 62.8094 153.665 64.0954 153.023 66.3243L127.996 153.151C127.353 155.38 128.639 157.707 130.868 158.35L170.54 169.785C172.769 170.427 175.097 169.141 175.739 166.912L200.766 80.0858C201.408 77.8569 200.122 75.5293 197.894 74.8868Z" fill="#CFF4C8"/>
<path d="M199.924 104.157L192.771 104.101C189.233 104.073 186.343 106.918 186.315 110.456C186.287 113.994 189.132 116.885 192.67 116.912L199.823 116.969C203.36 116.997 206.251 114.151 206.279 110.613C206.307 107.076 203.462 104.185 199.924 104.157Z" fill="#32976C"/>
<path d="M197.444 117.398L188.388 117.327C185.519 117.304 183.175 119.611 183.152 122.48C183.13 125.349 185.437 127.693 188.306 127.716L197.362 127.787C200.231 127.81 202.575 125.503 202.597 122.634C202.62 119.765 200.313 117.421 197.444 117.398Z" fill="#32976C"/>
<path d="M191.405 128.766L186.054 128.723C183.886 128.706 182.114 130.45 182.097 132.619C182.08 134.787 183.824 136.559 185.992 136.576L191.343 136.618C193.511 136.636 195.283 134.892 195.3 132.723C195.317 130.554 193.573 128.783 191.405 128.766Z" fill="#32976C"/>
<path d="M188.256 130.186L185.13 130.162C184.589 130.158 184.147 130.593 184.142 131.134L184.12 133.931C184.116 134.472 184.551 134.914 185.093 134.919L188.219 134.943C188.76 134.947 189.202 134.512 189.206 133.971L189.229 131.174C189.233 130.633 188.798 130.191 188.256 130.186Z" fill="#CFF4C8"/>
<path d="M191.426 119.792L187.924 119.764C186.764 119.755 185.817 120.688 185.807 121.847L185.794 123.541C185.785 124.701 186.718 125.649 187.877 125.658L191.38 125.686C192.54 125.695 193.487 124.762 193.496 123.602L193.51 121.908C193.519 120.748 192.586 119.801 191.426 119.792Z" fill="#CFF4C8"/>
<path d="M195.913 106.355L193.085 106.333C191.539 106.321 190.275 107.565 190.263 109.111L190.246 111.335C190.233 112.881 191.477 114.145 193.023 114.157L195.851 114.179C197.398 114.191 198.661 112.948 198.673 111.401L198.691 109.177C198.703 107.631 197.459 106.368 195.913 106.355Z" fill="#CFF4C8"/>
<g clip-path="url(#clip0_160_105)">
<path opacity="0.2" d="M183.274 106.711L176.642 131.462L146.94 123.504L153.572 98.752L183.274 106.711Z" fill="#004226"/>
<path d="M184.512 107.042L182.854 113.23C182.766 113.559 182.551 113.838 182.257 114.008C181.963 114.178 181.613 114.224 181.285 114.136C180.957 114.048 180.677 113.834 180.507 113.539C180.337 113.245 180.291 112.895 180.379 112.567L181.705 107.617L176.755 106.29C176.427 106.202 176.147 105.988 175.977 105.693C175.807 105.399 175.761 105.049 175.849 104.721C175.937 104.393 176.152 104.113 176.446 103.943C176.74 103.773 177.09 103.727 177.418 103.815L183.606 105.473C183.934 105.561 184.214 105.776 184.384 106.07C184.554 106.364 184.6 106.714 184.512 107.042ZM153.46 123.924L148.509 122.598L149.836 117.648C149.924 117.319 149.878 116.97 149.708 116.675C149.538 116.381 149.258 116.166 148.93 116.078C148.601 115.99 148.252 116.036 147.957 116.206C147.663 116.376 147.448 116.656 147.36 116.984L145.702 123.172C145.614 123.501 145.661 123.85 145.83 124.145C146 124.439 146.28 124.654 146.608 124.742L152.796 126.4C153.125 126.488 153.474 126.441 153.769 126.272C154.063 126.102 154.278 125.822 154.366 125.494C154.454 125.165 154.407 124.816 154.238 124.521C154.068 124.227 153.788 124.012 153.46 123.924ZM178.632 124.037C178.304 123.949 177.954 123.995 177.66 124.165C177.365 124.335 177.151 124.615 177.063 124.943L175.736 129.893L170.786 128.567C170.458 128.479 170.108 128.525 169.814 128.695C169.519 128.865 169.305 129.145 169.217 129.473C169.129 129.801 169.175 130.151 169.345 130.445C169.515 130.739 169.794 130.954 170.123 131.042L176.311 132.7C176.639 132.788 176.989 132.742 177.283 132.572C177.577 132.402 177.792 132.122 177.88 131.794L179.538 125.606C179.626 125.278 179.58 124.928 179.41 124.634C179.24 124.34 178.96 124.125 178.632 124.037ZM151.583 106.178C151.911 106.266 152.261 106.22 152.555 106.05C152.849 105.88 153.064 105.6 153.152 105.272L154.478 100.321L159.429 101.648C159.757 101.736 160.107 101.69 160.401 101.52C160.695 101.35 160.91 101.07 160.998 100.742C161.086 100.414 161.04 100.064 160.87 99.7695C160.7 99.4752 160.42 99.2605 160.092 99.1725L153.904 97.5145C153.576 97.4265 153.226 97.4726 152.932 97.6425C152.637 97.8124 152.423 98.0922 152.335 98.4205L150.677 104.608C150.589 104.937 150.635 105.286 150.805 105.581C150.974 105.875 151.254 106.09 151.583 106.178ZM159.671 105.692C159.343 105.604 158.993 105.65 158.699 105.82C158.405 105.99 158.19 106.27 158.102 106.598L154.786 118.974C154.698 119.302 154.744 119.652 154.914 119.946C155.084 120.241 155.364 120.455 155.692 120.543C156.02 120.631 156.37 120.585 156.664 120.415C156.959 120.245 157.173 119.965 157.261 119.637L160.577 107.261C160.665 106.933 160.619 106.583 160.449 106.289C160.279 105.995 160 105.78 159.671 105.692ZM172.112 123.617L175.428 111.241C175.516 110.912 175.47 110.563 175.3 110.268C175.131 109.974 174.851 109.759 174.522 109.671C174.194 109.584 173.845 109.63 173.55 109.799C173.256 109.969 173.041 110.249 172.953 110.577L169.637 122.953C169.549 123.282 169.595 123.631 169.765 123.926C169.935 124.22 170.215 124.435 170.543 124.523C170.871 124.611 171.221 124.564 171.515 124.395C171.81 124.225 172.024 123.945 172.112 123.617ZM169.572 108.345C169.244 108.257 168.894 108.303 168.6 108.473C168.306 108.643 168.091 108.923 168.003 109.251L164.687 121.627C164.599 121.955 164.645 122.305 164.815 122.599C164.985 122.893 165.265 123.108 165.593 123.196C165.921 123.284 166.271 123.238 166.565 123.068C166.859 122.898 167.074 122.618 167.162 122.29L170.478 109.914C170.566 109.586 170.52 109.236 170.35 108.942C170.18 108.648 169.9 108.433 169.572 108.345ZM164.622 107.019C164.293 106.931 163.944 106.977 163.649 107.147C163.355 107.316 163.14 107.596 163.053 107.925L159.736 120.3C159.648 120.629 159.694 120.978 159.864 121.273C160.034 121.567 160.314 121.782 160.642 121.87C160.971 121.958 161.32 121.912 161.615 121.742C161.909 121.572 162.124 121.292 162.212 120.964L165.528 108.588C165.616 108.26 165.57 107.91 165.4 107.616C165.23 107.321 164.95 107.107 164.622 107.019Z" fill="#004226"/>
</g>
<defs>
<clipPath id="clip0_160_105">
<rect width="41" height="41" fill="white" transform="translate(150.612 90) rotate(15)"/>
</clipPath>
</defs>
</svg>
