<svg width="280" height="280" viewBox="0 0 280 280" fill="none" xmlns="http://www.w3.org/2000/svg">
<path d="M37.7385 182.26C41.7787 201.419 53.0058 207.309 62.0577 205.132C79.5627 200.923 123.089 200.61 162.835 227.361C215.477 262.792 234.543 227.372 223.259 185.946C211.974 144.52 212.837 104.875 237.772 87.5119C262.706 70.1491 241.239 31.9126 185.996 57.5055C150.296 74.0445 128.007 64.8242 116.705 56.2315C106.053 48.1318 94.1343 39.5218 81.0113 42.1368C65.0875 45.3108 56.8995 57.0152 74.2581 89.6909C98.8568 135.996 28.6828 139.316 37.7385 182.26Z" fill="#CFF4C8"/>
<path d="M142.567 177.812L144.051 179.572L143.605 193.316L83.3449 205.389C82.9003 205.478 82.4425 205.48 81.9975 205.392C81.5525 205.305 81.1292 205.13 80.7516 204.879C80.374 204.628 80.0496 204.305 79.7969 203.928C79.5443 203.552 79.3683 203.129 79.279 202.684L61.652 114.703C61.562 114.259 61.5607 113.801 61.6481 113.357C61.7355 112.912 61.91 112.489 62.1615 112.112C62.4129 111.735 62.7364 111.411 63.1134 111.16C63.4904 110.908 63.9134 110.733 64.3581 110.646L128.543 97.7776L125.734 107.566C125.734 107.566 130.871 117.252 131.865 118.824L127.142 139.252L141.092 153.066L136.668 170.783L142.567 177.812Z" fill="#32976C"/>
<path d="M133.35 155.602L83.5172 165.589C83.3656 165.619 83.2673 165.766 83.2977 165.918L84.7689 173.259C84.7993 173.411 84.9468 173.509 85.0985 173.479L134.931 163.493C135.083 163.462 135.181 163.315 135.151 163.163L133.679 155.822C133.649 155.67 133.501 155.572 133.35 155.602Z" fill="white"/>
<path d="M136.668 170.784L142.566 177.813L89.5693 188.429C89.1205 188.518 88.6548 188.426 88.2738 188.172C87.8929 187.919 87.6277 187.525 87.5362 187.077L86.6367 182.573C86.5912 182.351 86.5902 182.122 86.6336 181.899C86.6771 181.676 86.7641 181.464 86.8898 181.275C87.0155 181.086 87.1774 180.924 87.3661 180.798C87.5547 180.672 87.7665 180.584 87.9891 180.54L136.668 170.784Z" fill="white"/>
<path d="M244.395 99.0701L221.206 185.742C220.967 186.626 220.389 187.379 219.597 187.837C218.805 188.295 217.863 188.421 216.979 188.188L148.52 169.871L155.864 158.564L155.037 155.67L152.456 146.65L152.459 146.642L164.597 133.177L157.856 113.405L171.194 97.8682L170.592 83.6967L178.02 77.7314L241.959 94.8371C242.843 95.0766 243.596 95.6567 244.052 96.4502C244.509 97.2437 244.632 98.1859 244.395 99.0701V99.0701Z" fill="#32976C"/>
<path d="M229.311 100.392L216.854 97.0579C213.866 96.2585 210.796 98.0323 209.996 101.02L206.663 113.478C205.863 116.465 207.637 119.535 210.625 120.335L223.082 123.669C226.07 124.468 229.14 122.694 229.94 119.706L233.273 107.249C234.073 104.261 232.299 101.191 229.311 100.392Z" fill="white"/>
<path d="M166.531 152.199L165.349 156.637C165.23 157.079 164.941 157.455 164.545 157.684C164.149 157.913 163.678 157.976 163.235 157.86L155.037 155.67L152.456 146.65L165.316 150.088C165.535 150.145 165.741 150.246 165.92 150.384C166.1 150.521 166.251 150.693 166.364 150.89C166.477 151.086 166.55 151.303 166.579 151.527C166.607 151.752 166.591 151.98 166.531 152.199Z" fill="white"/>
<path d="M139.851 92.4036C139.524 92.0477 139.348 91.5791 139.36 91.0963C139.372 90.6135 139.571 90.1542 139.915 89.815L152.611 76.7861C153.37 76.0078 154.602 75.9893 155.322 76.7456L156.326 77.7997C157.046 78.5557 156.965 79.7824 156.146 80.4976L142.446 92.4725C142.088 92.7976 141.618 92.9718 141.135 92.959C140.651 92.9461 140.191 92.7472 139.851 92.4036V92.4036Z" fill="#004226"/>
<path d="M132.352 87.9353C132.211 87.8702 132.084 87.7778 131.978 87.6635C131.873 87.5493 131.79 87.4153 131.737 87.2693C131.683 87.1233 131.658 86.9682 131.664 86.8127C131.67 86.6572 131.707 86.5044 131.772 86.3631L136.529 75.5159C136.663 75.2058 136.914 74.9613 137.227 74.8362C137.541 74.711 137.891 74.7154 138.201 74.8484L139.077 75.2443C139.226 75.3134 139.359 75.4126 139.468 75.5358C139.576 75.6589 139.659 75.8033 139.709 75.9598C139.759 76.1163 139.776 76.2815 139.759 76.4449C139.743 76.6084 139.692 76.7666 139.611 76.9096L133.979 87.3614C133.83 87.644 133.579 87.86 133.278 87.9663C132.976 88.0726 132.646 88.0616 132.352 87.9353V87.9353Z" fill="#004226"/>
<path d="M124.456 89.692C123.458 89.8674 122.5 89.0186 122.285 87.7678L118.456 65.5599C118.228 64.2333 118.919 62.9726 119.978 62.7865L121.453 62.5274C122.512 62.3415 123.511 63.3051 123.651 64.6471L126.004 87.1143C126.137 88.3796 125.454 89.5167 124.456 89.692Z" fill="#004226"/>
</svg>
